# xmcd CD database file
#
# Track frame offsets:
#	150
#	22525
#	29155
#	51342
#	69739
#	79279
#	91142
#	102788
#	132338
#	149463
#	167803
#	184115
#	201986
#
# Disc length: 2929 seconds
#
# Revision: 1
# Processed by: cddbd v1.5.2PL0 Copyright (c) Steve Scherf et al.
# Submitted via: CDex 1.70beta2
#
DISCID=b70b6f0d
DTITLE=Rodrigo Leao - O Mundo
DYEAR=1900
DGENRE=New Age
TTITLE0=Carpe Diem
TTITLE1=Amatorius
TTITLE2=Alma Mater
TTITLE3=Ave Mundi
TTITLE4=A Espera
TTITLE5=Final
TTITLE6=Imortal
TTITLE7=O Exercicio
TTITLE8=Ruinas
TTITLE9=Ascension
TTITLE10=La tragedia
TTITLE11=Vida Breve
TTITLE12=O Novo Mundo
EXTD=
EXTT0=
EXTT1=
EXTT2=
EXTT3=
EXTT4=
EXTT5=
EXTT6=
EXTT7=
EXTT8=
EXTT9=
EXTT10=
EXTT11=
EXTT12=
PLAYORDER=
